<svg xmlns="http://www.w3.org/2000/svg" xmlns:xlink="http://www.w3.org/1999/xlink" id="Layer_1" width="14" height="10" x="0" style="enable-background:new 0 0 14 10" y="0" version="1.1" viewBox="0 0 14 10" xml:space="preserve"><path fill="#FFF" d="M5,2h8c0.553,0,1-0.447,1-1s-0.447-1-1-1H5C4.447,0,4,0.447,4,1S4.447,2,5,2z M13,4H5C4.447,4,4,4.447,4,5s0.447,1,1,1h8	c0.553,0,1-0.447,1-1S13.553,4,13,4z M13,8H5C4.447,8,4,8.447,4,9s0.447,1,1,1h8c0.553,0,1-0.447,1-1S13.553,8,13,8z M1,0	C0.447,0,0,0.447,0,1s0.447,1,1,1s1-0.447,1-1S1.553,0,1,0z M1,4C0.447,4,0,4.447,0,5s0.447,1,1,1s1-0.447,1-1S1.553,4,1,4z M1,8	C0.447,8,0,8.447,0,9s0.447,1,1,1s1-0.447,1-1S1.553,8,1,8z"/></svg>