<svg xmlns="http://www.w3.org/2000/svg" xmlns:xlink="http://www.w3.org/1999/xlink" id="Layer_1" width="14" height="9" x="0" style="enable-background:new 0 0 14 9" y="0" version="1.1" viewBox="0 0 14 9" xml:space="preserve"><path fill="#FFF" d="M14,7c0-0.793-0.465-1.472-1.134-1.795C12.949,4.984,13,4.749,13,4.5c0-1.104-0.896-2-2-2c-0.158,0-0.31,0.023-0.457,0.058	C9.816,1.049,8.286,0,6.5,0C4.17,0,2.276,1.777,2.046,4.046C0.883,4.26,0,5.274,0,6.5C0,7.881,1.119,9,2.5,9h10V8.93	C13.361,8.706,14,7.931,14,7z"/></svg>