<svg xmlns="http://www.w3.org/2000/svg" xmlns:xlink="http://www.w3.org/1999/xlink" id="Layer_1" width="12" height="13.896" x="0" style="enable-background:new 0 0 12 13.896" y="0" version="1.1" viewBox="0 0 12 13.896" xml:space="preserve"><path fill="#FFF" d="M10.243,3.356c-0.392-0.401-1.024-0.401-1.415,0c-0.39,0.402-0.39,1.054,0,1.455C9.584,5.59,10,6.623,10,7.722	c0,1.1-0.416,2.133-1.172,2.911c-1.511,1.556-4.145,1.556-5.656,0C2.416,9.854,2,8.821,2,7.722c0-1.099,0.416-2.132,1.172-2.91	c0.39-0.401,0.39-1.053,0-1.455c-0.391-0.401-1.024-0.401-1.415,0C0.624,4.522,0,6.073,0,7.722c0,1.649,0.624,3.2,1.757,4.366	C2.891,13.254,4.397,13.896,6,13.896s3.109-0.643,4.243-1.809C11.376,10.922,12,9.371,12,7.722C12,6.073,11.376,4.522,10.243,3.356z M6,8c0.553,0,1-0.447,1-1V1c0-0.553-0.447-1-1-1S5,0.447,5,1v6C5,7.553,5.447,8,6,8z"/></svg>